<svg width="140px" height="50px" viewBox="0 0 176 26" fill="none" xmlns="http://www.w3.org/2000/svg">
<g filter="url(#filter0_i_1_3)">
<path d="M4.664 9.864L11.96 22.92L19.256 9.864L20.92 25H23.64L20.92 1.48L11.96 17.704L3 1.48L0.28 25H3L4.664 9.864ZM28.4583 20.456C28.4583 19.9227 28.5863 19.464 28.8423 19.08C29.0983 18.696 29.4823 18.3973 29.9943 18.184C30.5276 17.9707 31.2103 17.864 32.0423 17.864C32.9383 17.864 33.7809 17.9813 34.5703 18.216C35.3596 18.4293 36.1276 18.792 36.8743 19.304V17.8C36.7249 17.608 36.4369 17.3627 36.0103 17.064C35.5836 16.744 35.0076 16.4667 34.2823 16.232C33.5783 15.976 32.6929 15.848 31.6263 15.848C29.8129 15.848 28.3943 16.2853 27.3703 17.16C26.3676 18.0133 25.8663 19.1547 25.8663 20.584C25.8663 21.5867 26.1009 22.44 26.5703 23.144C27.0396 23.848 27.6583 24.392 28.4263 24.776C29.2156 25.1387 30.0583 25.32 30.9543 25.32C31.7649 25.32 32.5756 25.1707 33.3863 24.872C34.2183 24.5733 34.9116 24.1147 35.4663 23.496C36.0423 22.8773 36.3303 22.0987 36.3303 21.16L35.8183 19.24C35.8183 20.008 35.6263 20.6907 35.2423 21.288C34.8796 21.864 34.3783 22.312 33.7383 22.632C33.1196 22.952 32.4156 23.112 31.6263 23.112C31.0076 23.112 30.4529 23.016 29.9623 22.824C29.4929 22.6107 29.1196 22.3013 28.8423 21.896C28.5863 21.4907 28.4583 21.0107 28.4583 20.456ZM28.0743 13.672C28.3089 13.5013 28.6289 13.2987 29.0343 13.064C29.4396 12.8293 29.9303 12.6267 30.5063 12.456C31.1036 12.2853 31.7649 12.2 32.4903 12.2C32.9383 12.2 33.3649 12.2427 33.7703 12.328C34.1756 12.4133 34.5276 12.552 34.8263 12.744C35.1463 12.936 35.3916 13.2027 35.5623 13.544C35.7329 13.864 35.8183 14.28 35.8183 14.792V25H38.3783V14.44C38.3783 13.48 38.1329 12.6693 37.6423 12.008C37.1729 11.3467 36.5009 10.8453 35.6263 10.504C34.7729 10.1413 33.7703 9.96 32.6183 9.96C31.2529 9.96 30.0796 10.1627 29.0983 10.568C28.1383 10.9733 27.3809 11.3787 26.8263 11.784L28.0743 13.672ZM45.2725 10.28H42.7125V25H45.2725V10.28ZM49.7205 13.096L51.1285 10.984C50.7445 10.5787 50.3178 10.312 49.8485 10.184C49.4005 10.0347 48.9098 9.96 48.3765 9.96C47.6938 9.96 47.0218 10.2267 46.3605 10.76C45.6992 11.2933 45.1552 12.0187 44.7285 12.936C44.3232 13.832 44.1205 14.8667 44.1205 16.04H45.2725C45.2725 15.336 45.3365 14.7067 45.4645 14.152C45.6138 13.5973 45.8698 13.16 46.2325 12.84C46.5952 12.52 47.0965 12.36 47.7365 12.36C48.1632 12.36 48.5152 12.424 48.7925 12.552C49.0698 12.6587 49.3792 12.84 49.7205 13.096ZM51.4413 10.28V12.68H58.8013V10.28H51.4413ZM53.8413 5.16V25H56.4013V5.16H53.8413ZM62.5208 20.456C62.5208 19.9227 62.6488 19.464 62.9048 19.08C63.1608 18.696 63.5448 18.3973 64.0568 18.184C64.5901 17.9707 65.2728 17.864 66.1048 17.864C67.0008 17.864 67.8434 17.9813 68.6328 18.216C69.4221 18.4293 70.1901 18.792 70.9368 19.304V17.8C70.7874 17.608 70.4994 17.3627 70.0728 17.064C69.6461 16.744 69.0701 16.4667 68.3448 16.232C67.6408 15.976 66.7554 15.848 65.6888 15.848C63.8754 15.848 62.4568 16.2853 61.4328 17.16C60.4301 18.0133 59.9288 19.1547 59.9288 20.584C59.9288 21.5867 60.1634 22.44 60.6328 23.144C61.1021 23.848 61.7208 24.392 62.4888 24.776C63.2781 25.1387 64.1208 25.32 65.0168 25.32C65.8274 25.32 66.6381 25.1707 67.4488 24.872C68.2808 24.5733 68.9741 24.1147 69.5288 23.496C70.1048 22.8773 70.3928 22.0987 70.3928 21.16L69.8808 19.24C69.8808 20.008 69.6888 20.6907 69.3048 21.288C68.9421 21.864 68.4408 22.312 67.8008 22.632C67.1821 22.952 66.4781 23.112 65.6888 23.112C65.0701 23.112 64.5154 23.016 64.0248 22.824C63.5554 22.6107 63.1821 22.3013 62.9048 21.896C62.6488 21.4907 62.5208 21.0107 62.5208 20.456ZM62.1368 13.672C62.3714 13.5013 62.6914 13.2987 63.0968 13.064C63.5021 12.8293 63.9928 12.6267 64.5688 12.456C65.1661 12.2853 65.8274 12.2 66.5528 12.2C67.0008 12.2 67.4274 12.2427 67.8328 12.328C68.2381 12.4133 68.5901 12.552 68.8888 12.744C69.2088 12.936 69.4541 13.2027 69.6248 13.544C69.7954 13.864 69.8808 14.28 69.8808 14.792V25H72.4408V14.44C72.4408 13.48 72.1954 12.6693 71.7048 12.008C71.2354 11.3467 70.5634 10.8453 69.6888 10.504C68.8354 10.1413 67.8328 9.96 66.6808 9.96C65.3154 9.96 64.1421 10.1627 63.1608 10.568C62.2008 10.9733 61.4434 11.3787 60.8888 11.784L62.1368 13.672ZM86.5288 2.6V25H89.2488V2.6H86.5288ZM98.0488 2.6L88.4168 13.16L98.5288 25H101.889L91.7128 13.096L101.409 2.6H98.0488ZM105.615 20.456C105.615 19.9227 105.743 19.464 105.999 19.08C106.255 18.696 106.639 18.3973 107.151 18.184C107.684 17.9707 108.367 17.864 109.199 17.864C110.095 17.864 110.937 17.9813 111.727 18.216C112.516 18.4293 113.284 18.792 114.031 19.304V17.8C113.881 17.608 113.593 17.3627 113.167 17.064C112.74 16.744 112.164 16.4667 111.439 16.232C110.735 15.976 109.849 15.848 108.783 15.848C106.969 15.848 105.551 16.2853 104.527 17.16C103.524 18.0133 103.023 19.1547 103.023 20.584C103.023 21.5867 103.257 22.44 103.727 23.144C104.196 23.848 104.815 24.392 105.583 24.776C106.372 25.1387 107.215 25.32 108.111 25.32C108.921 25.32 109.732 25.1707 110.543 24.872C111.375 24.5733 112.068 24.1147 112.623 23.496C113.199 22.8773 113.487 22.0987 113.487 21.16L112.975 19.24C112.975 20.008 112.783 20.6907 112.399 21.288C112.036 21.864 111.535 22.312 110.895 22.632C110.276 22.952 109.572 23.112 108.783 23.112C108.164 23.112 107.609 23.016 107.119 22.824C106.649 22.6107 106.276 22.3013 105.999 21.896C105.743 21.4907 105.615 21.0107 105.615 20.456ZM105.231 13.672C105.465 13.5013 105.785 13.2987 106.191 13.064C106.596 12.8293 107.087 12.6267 107.663 12.456C108.26 12.2853 108.921 12.2 109.647 12.2C110.095 12.2 110.521 12.2427 110.927 12.328C111.332 12.4133 111.684 12.552 111.983 12.744C112.303 12.936 112.548 13.2027 112.719 13.544C112.889 13.864 112.975 14.28 112.975 14.792V25H115.535V14.44C115.535 13.48 115.289 12.6693 114.799 12.008C114.329 11.3467 113.657 10.8453 112.783 10.504C111.929 10.1413 110.927 9.96 109.775 9.96C108.409 9.96 107.236 10.1627 106.255 10.568C105.295 10.9733 104.537 11.3787 103.983 11.784L105.231 13.672ZM122.429 10.28H119.869V25H122.429V10.28ZM126.877 13.096L128.285 10.984C127.901 10.5787 127.474 10.312 127.005 10.184C126.557 10.0347 126.066 9.96 125.533 9.96C124.85 9.96 124.178 10.2267 123.517 10.76C122.855 11.2933 122.311 12.0187 121.885 12.936C121.479 13.832 121.277 14.8667 121.277 16.04H122.429C122.429 15.336 122.493 14.7067 122.621 14.152C122.77 13.5973 123.026 13.16 123.389 12.84C123.751 12.52 124.253 12.36 124.893 12.36C125.319 12.36 125.671 12.424 125.949 12.552C126.226 12.6587 126.535 12.84 126.877 13.096ZM131.99 20.456C131.99 19.9227 132.118 19.464 132.374 19.08C132.63 18.696 133.014 18.3973 133.526 18.184C134.059 17.9707 134.742 17.864 135.574 17.864C136.47 17.864 137.312 17.9813 138.102 18.216C138.891 18.4293 139.659 18.792 140.406 19.304V17.8C140.256 17.608 139.968 17.3627 139.542 17.064C139.115 16.744 138.539 16.4667 137.814 16.232C137.11 15.976 136.224 15.848 135.158 15.848C133.344 15.848 131.926 16.2853 130.902 17.16C129.899 18.0133 129.398 19.1547 129.398 20.584C129.398 21.5867 129.632 22.44 130.102 23.144C130.571 23.848 131.19 24.392 131.958 24.776C132.747 25.1387 133.59 25.32 134.486 25.32C135.296 25.32 136.107 25.1707 136.918 24.872C137.75 24.5733 138.443 24.1147 138.998 23.496C139.574 22.8773 139.862 22.0987 139.862 21.16L139.35 19.24C139.35 20.008 139.158 20.6907 138.774 21.288C138.411 21.864 137.91 22.312 137.27 22.632C136.651 22.952 135.947 23.112 135.158 23.112C134.539 23.112 133.984 23.016 133.494 22.824C133.024 22.6107 132.651 22.3013 132.374 21.896C132.118 21.4907 131.99 21.0107 131.99 20.456ZM131.606 13.672C131.84 13.5013 132.16 13.2987 132.566 13.064C132.971 12.8293 133.462 12.6267 134.038 12.456C134.635 12.2853 135.296 12.2 136.022 12.2C136.47 12.2 136.896 12.2427 137.302 12.328C137.707 12.4133 138.059 12.552 138.358 12.744C138.678 12.936 138.923 13.2027 139.094 13.544C139.264 13.864 139.35 14.28 139.35 14.792V25H141.91V14.44C141.91 13.48 141.664 12.6693 141.174 12.008C140.704 11.3467 140.032 10.8453 139.158 10.504C138.304 10.1413 137.302 9.96 136.15 9.96C134.784 9.96 133.611 10.1627 132.63 10.568C131.67 10.9733 130.912 11.3787 130.358 11.784L131.606 13.672ZM148.644 0.039999H146.084V25H148.644V0.039999ZM160.964 17.64C160.964 16.04 160.633 14.6747 159.972 13.544C159.31 12.392 158.425 11.5067 157.316 10.888C156.228 10.2693 155.012 9.96 153.668 9.96C152.452 9.96 151.374 10.2693 150.436 10.888C149.518 11.5067 148.793 12.392 148.26 13.544C147.748 14.6747 147.492 16.04 147.492 17.64C147.492 19.2187 147.748 20.584 148.26 21.736C148.793 22.888 149.518 23.7733 150.436 24.392C151.374 25.0107 152.452 25.32 153.668 25.32C155.012 25.32 156.228 25.0107 157.316 24.392C158.425 23.7733 159.31 22.888 159.972 21.736C160.633 20.584 160.964 19.2187 160.964 17.64ZM158.372 17.64C158.372 18.7707 158.137 19.7307 157.668 20.52C157.22 21.3093 156.612 21.9067 155.844 22.312C155.097 22.7173 154.265 22.92 153.348 22.92C152.601 22.92 151.865 22.7173 151.14 22.312C150.414 21.9067 149.817 21.3093 149.348 20.52C148.878 19.7307 148.644 18.7707 148.644 17.64C148.644 16.5093 148.878 15.5493 149.348 14.76C149.817 13.9707 150.414 13.3733 151.14 12.968C151.865 12.5627 152.601 12.36 153.348 12.36C154.265 12.36 155.097 12.5627 155.844 12.968C156.612 13.3733 157.22 13.9707 157.668 14.76C158.137 15.5493 158.372 16.5093 158.372 17.64ZM165.646 20.456C165.646 19.9227 165.774 19.464 166.03 19.08C166.286 18.696 166.67 18.3973 167.182 18.184C167.715 17.9707 168.398 17.864 169.23 17.864C170.126 17.864 170.968 17.9813 171.758 18.216C172.547 18.4293 173.315 18.792 174.062 19.304V17.8C173.912 17.608 173.624 17.3627 173.198 17.064C172.771 16.744 172.195 16.4667 171.47 16.232C170.766 15.976 169.88 15.848 168.814 15.848C167 15.848 165.582 16.2853 164.558 17.16C163.555 18.0133 163.054 19.1547 163.054 20.584C163.054 21.5867 163.288 22.44 163.758 23.144C164.227 23.848 164.846 24.392 165.614 24.776C166.403 25.1387 167.246 25.32 168.142 25.32C168.952 25.32 169.763 25.1707 170.574 24.872C171.406 24.5733 172.099 24.1147 172.654 23.496C173.23 22.8773 173.518 22.0987 173.518 21.16L173.006 19.24C173.006 20.008 172.814 20.6907 172.43 21.288C172.067 21.864 171.566 22.312 170.926 22.632C170.307 22.952 169.603 23.112 168.814 23.112C168.195 23.112 167.64 23.016 167.15 22.824C166.68 22.6107 166.307 22.3013 166.03 21.896C165.774 21.4907 165.646 21.0107 165.646 20.456ZM165.262 13.672C165.496 13.5013 165.816 13.2987 166.222 13.064C166.627 12.8293 167.118 12.6267 167.694 12.456C168.291 12.2853 168.952 12.2 169.678 12.2C170.126 12.2 170.552 12.2427 170.958 12.328C171.363 12.4133 171.715 12.552 172.014 12.744C172.334 12.936 172.579 13.2027 172.75 13.544C172.92 13.864 173.006 14.28 173.006 14.792V25H175.566V14.44C175.566 13.48 175.32 12.6693 174.83 12.008C174.36 11.3467 173.688 10.8453 172.814 10.504C171.96 10.1413 170.958 9.96 169.806 9.96C168.44 9.96 167.267 10.1627 166.286 10.568C165.326 10.9733 164.568 11.3787 164.014 11.784L165.262 13.672Z" fill="#646363"/>
</g>
<defs>
<filter id="filter0_i_1_3" x="0.279999" y="0.0400009" width="175.286" height="29.28" filterUnits="userSpaceOnUse" color-interpolation-filters="sRGB">
<feFlood flood-opacity="0" result="BackgroundImageFix"/>
<feBlend mode="normal" in="SourceGraphic" in2="BackgroundImageFix" result="shape"/>
<feColorMatrix in="SourceAlpha" type="matrix" values="0 0 0 0 0 0 0 0 0 0 0 0 0 0 0 0 0 0 127 0" result="hardAlpha"/>
<feOffset dy="4"/>
<feGaussianBlur stdDeviation="2"/>
<feComposite in2="hardAlpha" operator="arithmetic" k2="-1" k3="1"/>
<feColorMatrix type="matrix" values="0 0 0 0 0 0 0 0 0 0 0 0 0 0 0 0 0 0 0.25 0"/>
<feBlend mode="normal" in2="shape" result="effect1_innerShadow_1_3"/>
</filter>
</defs>
</svg>
